<svg width="210" height="232" viewBox="0 0 210 232" fill="none" xmlns="http://www.w3.org/2000/svg">
<path d="M85.9692 111.745C85.1225 110.492 78.6786 109.672 76.5591 114.692C75.7549 116.603 75.8827 121.486 75.2064 124.552C74.53 127.617 72.9537 129.356 72.3838 131.847C71.814 134.337 72.7406 138.503 79.2431 139.216C85.7456 139.928 90.7409 137.85 92.2746 135.939C93.8084 134.028 93.8723 129.965 92.2746 127.779C90.677 125.593 89.4734 123.849 89.5107 120.98L85.9692 111.745Z" fill="#3A2C6D"/>
<path d="M93.6859 132.82C93.6859 132.82 95.2143 142.762 92.3279 149.832C89.4414 156.901 90.2456 148.009 90.2456 148.009L90.9379 145.902C90.9379 145.902 91.5184 137.771 91.2787 135.782C91.0391 133.792 91.0924 132.078 90.9379 131.916C90.7835 131.753 91.5077 131.424 91.8166 131.4C92.1255 131.375 93.6859 132.82 93.6859 132.82Z" fill="#FFCEA9"/>
<path d="M81.7141 110.875C81.7141 110.875 86.5657 109.583 89.5054 112.005C92.1947 114.216 91.9711 117.222 91.5823 118.637C91.1935 120.052 90.4054 121.978 89.1858 122.076C87.9663 122.174 81.7141 110.875 81.7141 110.875Z" fill="#3A2C6D"/>
<path d="M79.8821 123.083C79.8821 123.083 80.1963 128.069 80.1005 128.438C80.0046 128.806 77.9703 129.16 77.4058 129.592C76.8413 130.024 80.3295 135.094 82.1135 135.836C83.8976 136.578 89.4201 134.672 89.8036 132.147C90.1551 129.813 88.2059 128 87.4763 127.367C86.9701 127.323 86.4612 127.312 85.9532 127.332L85.7935 124.915C83.3703 124.193 79.8821 123.083 79.8821 123.083Z" fill="#FFCEA9"/>
<path d="M79.1153 128.924C77.5975 129.135 75.8614 129.906 75.6218 130.653C75.3448 131.547 74.7431 135.767 76.0585 138.98C77.3739 142.193 78.2579 144.231 79.0141 145.617C79.0141 145.617 85.5911 148.215 90.89 145.184C90.89 145.184 91.2521 141.746 91.2788 139.903C96.1676 135.973 91.9871 131.11 87.8438 127.337C87.3477 127.298 86.8488 127.298 86.3527 127.337C86.3527 127.337 90.0486 131.37 87.4764 133.664C81.9698 132.112 80.878 129.833 79.1153 128.924Z" fill="#F4F4F4"/>
<path d="M89.958 116.918C89.4255 113.715 86.9065 111.293 83.3224 111.514C81.8947 111.6 80.5316 112.095 79.4228 112.929C78.314 113.763 77.5148 114.895 77.1363 116.168C76.7578 117.441 76.8188 118.791 77.311 120.03C77.8032 121.27 78.7019 122.337 79.8822 123.083C80.0016 123.567 80.1803 124.036 80.4147 124.483C81.6875 125.844 85.0586 126.713 86.1716 126.723C87.1302 126.723 87.961 125.908 88.861 124.527C90.7356 121.663 90.2616 118.485 89.958 116.918Z" fill="#FFCEA9"/>
<path d="M82.2147 111.514C79.7011 111.966 77.6294 112.619 76.9478 114.894C76.4791 116.461 75.8827 119.453 76.4525 120.71L76.8146 121.619L79.8821 123.083C79.8821 123.083 81.2987 121.992 80.8567 118.789C80.8727 118.356 81.0203 117.936 81.2828 117.576C81.4756 117.269 81.6191 116.938 81.7088 116.593C82.0646 115.728 82.7711 115.023 83.6792 114.628C85.9213 113.479 89.2391 114.461 89.7024 114.904C89.0675 113.63 87.9761 112.598 86.6121 111.98C85.2481 111.363 83.695 111.198 82.2147 111.514Z" fill="#3A2C6D"/>
<path d="M75.446 152.229C74.8815 148.982 73.8484 146.874 74.317 145.091C75.3978 141.474 76.8235 137.953 78.5774 134.568C79.6905 132.544 79.3496 131.13 78.194 130.344C76.8999 129.45 75.6644 129.852 74.4981 132.078C73.0282 134.893 71.372 137.781 70.5679 141.972C70.1738 144.005 69.9714 145.98 70.6797 150.156C71.175 153.074 72.1815 154.715 73.3744 157.456C73.7206 158.207 75.9253 154.985 75.446 152.229Z" fill="#FFCEA9"/>
<path d="M77.6455 212.8C78.9182 213.753 80.894 213.095 80.9899 213.184C82.284 214.377 84.2118 215.419 85.6497 216.465C86.4432 217.04 87.6787 217.811 87.455 218.921C87.0556 220.886 83.626 220.287 82.3319 219.683C81.0378 219.079 79.978 218.076 78.7532 217.374C77.8798 216.883 77.0224 216.617 76.8839 215.596C76.804 214.977 77.4218 212.776 77.6455 212.8Z" fill="#38226D"/>
<path d="M76.8998 215.168C77.0703 216.151 77.917 216.411 78.7851 216.907C80.0312 217.62 81.1283 218.651 82.4171 219.255C83.6153 219.811 86.5976 220.366 87.439 218.956C86.981 220.862 83.61 220.262 82.3319 219.663C81.0537 219.064 79.978 218.057 78.7531 217.354C77.8797 216.863 77.0223 216.598 76.8839 215.576C76.8743 215.44 76.8797 215.303 76.8998 215.168Z" fill="#9C73FF"/>
<path d="M86.571 211.155C87.7319 212.029 89.4947 211.538 89.5799 211.621C90.7622 212.717 92.5196 213.655 93.8403 214.613C94.5699 215.139 95.6989 215.846 95.4966 216.858C95.1291 218.666 91.987 218.111 90.7994 217.556C89.6119 217.001 88.6692 216.082 87.5243 215.443C86.7254 214.986 85.9266 214.746 85.8148 213.812C85.7402 213.252 86.3633 211.135 86.571 211.155Z" fill="#38226D"/>
<path d="M85.8254 213.439C85.9798 214.333 86.7574 214.579 87.5509 215.031C88.6905 215.684 89.6811 216.627 90.8793 217.182C91.9764 217.674 94.7083 218.199 95.4752 216.907C95.0545 218.651 91.971 218.106 90.7941 217.556C89.6172 217.005 88.6639 216.082 87.5189 215.443C86.7201 214.986 85.9213 214.746 85.8094 213.812C85.7999 213.688 85.8053 213.563 85.8254 213.439Z" fill="#9C73FF"/>
<path d="M93.4249 156.577C92.8658 152.533 91.2468 146.653 91.2468 146.653C89.719 147.315 88.0653 147.694 86.3793 147.768C83.5514 147.901 79.0247 147.105 79.0247 147.105C78.2323 148.383 77.3665 149.621 76.4312 150.814C75.1637 152.435 72.7034 155.982 73.2998 162.182C73.6886 166.23 76.149 183.433 76.149 183.433C75.1926 186.327 74.6834 189.33 74.6365 192.354C74.6631 194.855 75.3768 199.109 76.1756 203.039L77.6454 212.805C77.6454 212.805 79.5999 214.107 80.9898 213.188L80.8141 203.629C80.9845 201.295 81.2348 197.842 81.3999 195.641C81.6609 192.05 82.3585 186.351 82.5609 184.932C82.7633 183.512 83.2532 181.002 83.4875 178.236C83.7218 175.47 84.8615 161.288 84.8615 161.288L85.0213 163.94C85.0213 163.94 85.1704 168.244 85.8414 173.559C86.5124 178.874 86.7467 181.228 86.7467 181.228C86.7467 181.228 85.5858 183.193 85.4367 184.666C85.3195 185.816 83.8923 194.894 84.7443 199.517L86.4911 211.238C86.9262 211.515 87.4263 211.693 87.9502 211.757C88.4742 211.821 89.0071 211.769 89.5054 211.607L90.5332 199.772C91.2202 195.268 92.6634 185.723 92.8977 184.48C93.1959 182.844 93.4303 182.023 93.7711 176.905C94.1119 171.786 93.9894 160.639 93.4249 156.577Z" fill="#FFCEA9"/>
<path d="M79.0141 145.617L75.2383 152.612C75.2383 152.612 69.4761 160.394 75.446 180.397L74.3276 186.567C74.3276 186.567 85.6284 193.258 93.1959 186.567C93.1959 186.567 95.8161 168.082 94.4208 159.549C93.646 154.646 92.4692 149.805 90.9006 145.066C90.9006 145.066 89.0473 146.958 79.5147 145.71" fill="#7F77FE"/>
<path d="M72.24 136.003C72.24 136.003 74.8655 138.41 77.9756 138.115L79.4667 133.424C79.4667 133.424 80.4413 130.967 78.1726 129.897C75.904 128.826 73.5448 131.198 72.24 136.003Z" fill="#EDEDED"/>
<path d="M87.8438 127.337C87.8438 127.337 90.8474 126.492 94.032 132.638L92.8391 133.301C92.8391 133.301 89.7024 128.914 87.8438 127.337Z" fill="#EDEDED"/>
<path d="M201.262 201.084L148.213 170.464C143.719 167.875 140.075 160.919 140.075 154.935V7.11732C140.075 1.13386 143.719 -1.61716 148.213 0.976656L201.262 31.5719C205.756 34.1657 209.4 41.1218 209.4 47.1053V194.938C209.4 200.921 205.756 203.677 201.262 201.084Z" fill="#B1B4C4"/>
<path d="M202.171 203.751L206.376 201.629L202.343 194.722L202.171 203.751Z" fill="#B1B4C4"/>
<path d="M139.249 2.45038L143.119 0.421509L142.337 6.12004L139.249 2.45038Z" fill="#B1B4C4"/>
<path d="M197.878 202.773L144.83 172.173C140.336 169.584 136.692 162.628 136.692 156.645V8.80724C136.692 2.82378 140.336 0.0727661 144.83 2.66167L197.878 33.2618C202.373 35.8556 206.017 42.8068 206.017 48.7952V196.628C206.017 202.616 202.373 205.367 197.878 202.773Z" fill="#616E84"/>
<path d="M205.436 49.1735V196.991C205.436 202.985 201.798 205.731 197.303 203.142L176.498 191.141L170.032 187.422L144.265 172.552C139.77 169.958 136.131 163.007 136.131 157.018V9.18549C136.131 3.19712 139.77 0.451014 144.265 3.03992L197.318 33.6351C201.812 36.2339 205.436 43.1802 205.436 49.1735Z" fill="#20232D"/>
<path d="M201.625 47.6506V191.637C201.625 195.257 199.083 196.736 195.936 194.918L179.374 185.373L177.899 184.528L177.408 184.239L173.823 182.175L163.447 176.197L159.145 173.716L157.414 172.733L145.656 165.954C142.514 164.141 139.967 159.73 139.967 156.095V12.0986C139.967 8.46825 142.514 6.9994 145.656 8.81212L166.368 20.7594V20.8183C166.368 23.643 168.335 27.0769 170.794 28.4868C173.252 29.8967 175.219 28.7521 175.219 25.9323C175.219 25.9323 175.219 25.8881 175.219 25.8684L195.936 37.8255C199.083 39.6284 201.625 44.0399 201.625 47.6506Z" fill="white"/>
<path d="M171.987 27.0006C172.643 26.6221 172.642 25.3934 171.985 24.2562C171.328 23.119 170.263 22.5039 169.607 22.8824C168.951 23.2608 168.951 24.4896 169.609 25.6268C170.266 26.764 171.331 27.3791 171.987 27.0006Z" fill="#2B303F"/>
<path opacity="0.1" d="M170.794 25.7555C170.587 25.6221 170.415 25.4417 170.292 25.229C170.169 25.0164 170.098 24.7776 170.086 24.5323C170.086 24.0852 170.4 23.9035 170.794 24.1294C171 24.2618 171.173 24.4412 171.297 24.653C171.421 24.8647 171.493 25.1028 171.507 25.3477C171.507 25.7948 171.182 25.9765 170.794 25.7555Z" fill="white"/>
<path d="M207.605 68.6222C207.172 68.8727 206.823 68.6222 206.823 68.0327V61.7299C206.831 61.4407 206.905 61.1571 207.041 60.9015C207.177 60.6458 207.37 60.4249 207.605 60.2561C208.038 60.0056 208.387 60.2561 208.387 60.8506V67.1533C208.379 67.4418 208.304 67.7245 208.168 67.9793C208.032 68.2341 207.84 68.4541 207.605 68.6222Z" fill="#757B89"/>
<path d="M207.605 78.9532C207.172 79.1988 206.823 78.9532 206.823 78.3588V72.056C206.827 71.7627 206.9 71.4744 207.036 71.2143C207.172 70.9541 207.367 70.7293 207.605 70.5577V70.5577C208.038 70.3121 208.387 70.5577 208.387 71.1521V77.4549C208.382 77.7482 208.309 78.0365 208.174 78.2967C208.038 78.5568 207.843 78.7817 207.605 78.9532V78.9532Z" fill="#757B89"/>
<path d="M191.668 182.647L149.944 158.575C147.781 157.328 146.01 153.972 146.01 151.089V73.687C146.01 70.7984 147.771 69.4721 149.944 70.7395L191.668 94.8109C193.836 96.0636 195.602 99.4139 195.602 102.302V179.724C195.602 182.568 193.822 183.895 191.668 182.647Z" fill="#E9EAF2"/>
<path d="M166.023 104.311C169.088 102.543 169.088 96.8115 166.023 91.5084C162.958 86.2053 157.989 83.3392 154.925 85.1068C151.86 86.8744 151.86 92.6063 154.925 97.9094C157.99 103.213 162.959 106.079 166.023 104.311Z" fill="#CED0DB"/>
<path d="M189.209 110.241L173.07 100.932V97.159L189.209 106.468V110.241Z" fill="#CED0DB"/>
<path d="M185.487 114.879L173.07 107.721V103.948L185.487 111.111V114.879Z" fill="#CED0DB"/>
<path d="M189.209 132.018L152.629 110.919V107.151L189.209 128.246V132.018Z" fill="#CED0DB"/>
<path d="M180.766 133.939L152.629 117.708V113.935L180.766 130.166V133.939Z" fill="#CED0DB"/>
<path d="M189.081 145.523L152.501 124.424V120.651L189.081 141.75V145.523Z" fill="#CED0DB"/>
<path d="M180.643 147.444L152.501 131.213V127.44L180.643 143.671V147.444Z" fill="#CED0DB"/>
<path d="M189.081 159.101L152.501 138.002V134.229L189.081 155.328V159.101Z" fill="#CED0DB"/>
<path d="M188.757 172.488L152.177 151.388V147.621L188.757 168.715V172.488Z" fill="#CED0DB"/>
<path d="M180.643 161.022L152.501 144.791V141.018L180.643 157.249V161.022Z" fill="#CED0DB"/>
<path d="M164.691 49.8219C165.719 48.1713 173.577 47.0857 176.159 53.752C177.142 56.2721 176.99 62.7173 177.811 66.7702C178.632 70.823 180.56 73.1122 181.253 76.3987C181.946 79.6852 180.815 85.1872 172.893 86.1599C164.972 87.1326 158.874 84.357 157.006 81.832C155.137 79.3069 155.093 73.9424 157.04 71.0637C158.987 68.185 160.458 65.8368 160.413 62.0885L164.691 49.8219Z" fill="#2B2A30"/>
<path d="M169.879 48.6773C169.879 48.6773 163.978 46.9727 160.379 50.1511C157.099 53.0691 157.374 57.0286 157.851 58.9101C158.328 60.7916 159.282 63.3314 160.767 63.464C162.252 63.5967 169.879 48.6773 169.879 48.6773Z" fill="#2B2A30"/>
<path d="M172.141 64.7904C172.141 64.7904 171.753 71.3781 171.871 71.8595C171.989 72.3409 174.462 72.8126 175.151 73.3873C175.839 73.9621 171.566 80.6431 169.392 81.6355C167.219 82.6278 160.482 80.0978 160.015 76.7229C159.587 73.6428 161.943 71.2504 162.852 70.4152C163.47 70.3558 164.091 70.3394 164.711 70.3661L164.908 67.173C167.858 66.2592 172.141 64.7904 172.141 64.7904Z" fill="#FFCEA9"/>
<path d="M156.199 77.2338C156.16 77.0521 155.216 77.5826 155.191 77.5974C155.166 77.6121 154.724 94.4965 153.888 96.0242C151.783 99.6153 146.187 105.682 146.05 106.365C145.637 108.414 146.827 106.576 148.749 106.365C149.831 106.232 156.179 99.8118 157.601 98.3479L157.689 98.4019C157.689 98.343 157.689 98.2889 157.714 98.2349L157.901 98.0433C157.952 97.59 157.967 97.1333 157.945 96.6776C160.585 78.3195 157.34 77.0963 156.199 77.2338Z" fill="#FFCEA9"/>
<path d="M154.758 79.8277L154.424 87.9628L153.888 94.3737C153.888 94.3737 153.991 95.2333 153.047 96.7366C152.103 98.2398 147.058 104.484 147.058 104.484L149.339 106.375L154.537 102.111L157.979 79.1399L156.17 76.9047L154.758 79.8277Z" fill="white"/>
<path d="M173.046 72.5031C174.895 72.788 177.014 73.7754 177.304 74.7874C177.644 75.9713 178.376 81.5421 176.773 85.7816C175.17 90.0211 174.088 92.7181 173.169 94.5407C173.169 94.5407 165.154 97.9794 158.692 93.9708C158.692 93.9708 158.25 89.4317 158.2 87C152.236 81.8025 157.335 75.3916 162.385 70.4153C162.99 70.3532 163.599 70.345 164.205 70.3907C164.205 70.3907 159.7 75.7159 162.833 78.742C169.564 76.7131 170.897 73.687 173.046 72.5031Z" fill="#F4F4F4"/>
<path d="M159.823 56.6307C160.492 52.401 163.551 49.203 167.917 49.4584C169.674 49.5547 171.356 50.2 172.726 51.3032C174.095 52.4063 175.084 53.9116 175.55 55.6063C176.017 57.3009 175.939 59.0993 175.328 60.7474C174.716 62.3954 173.601 63.8097 172.141 64.7904C171.988 65.4316 171.762 66.053 171.467 66.6425C169.919 68.4404 165.808 69.59 164.45 69.59C163.28 69.59 162.267 68.5092 161.171 66.6916C158.879 62.9188 159.459 58.7235 159.823 56.6307Z" fill="#FFCEA9"/>
<path d="M169.269 49.537C172.333 50.1363 174.855 51.0107 175.687 54.0025C176.257 56.0707 176.999 60.0203 176.291 61.6808L175.849 62.8794L172.141 64.7904C172.141 64.7904 170.41 63.351 170.946 59.1262C170.929 58.5536 170.748 57.9978 170.425 57.5248C170.202 57.124 170.037 56.6941 169.933 56.2475C169.56 55.0685 168.61 54.2825 167.529 53.6488C164.765 52.1013 160.723 53.4375 160.153 53.9976C162.002 50.1756 165.709 48.8394 169.269 49.537Z" fill="#2B2A30"/>
<path d="M180.142 116.514C179.65 121.859 176.67 144.575 176.67 144.575C177.838 148.398 178.457 152.368 178.509 156.365C178.48 159.671 177.614 165.281 176.636 170.479L174.919 182.834L170.823 180.466L170.986 171.255C170.774 168.17 170.469 163.616 170.272 160.703C169.953 155.967 169.102 148.421 168.856 146.564C168.61 144.707 168.011 141.406 167.72 137.722C167.43 134.037 166.044 115.345 166.044 115.345L165.852 118.848C165.852 118.848 165.67 124.537 164.868 131.542C164.067 138.547 163.757 141.672 163.757 141.672C163.757 141.672 165.178 144.275 165.36 146.196C165.508 147.714 167.239 159.7 166.201 165.802L164.681 176.914L159.764 174.094L159.13 166.16C158.289 160.216 156.514 147.611 156.238 145.97C155.884 143.813 155.589 142.752 155.176 135.973C154.763 129.194 154.916 114.471 155.599 109.131C156.283 103.791 158.255 96.0341 158.255 96.0341C160.116 96.9078 162.131 97.4085 164.185 97.5079C167.627 97.6847 173.159 96.6384 173.159 96.6384C174.124 98.3232 175.18 99.9549 176.321 101.526C177.87 103.653 180.85 108.335 180.142 116.514Z" fill="#FFCEA9"/>
<path d="M173.169 94.5407L177.771 103.781C177.771 103.781 184.798 114.053 177.516 140.463L178.883 148.608C178.883 148.608 165.114 157.451 155.884 148.608C155.884 148.608 152.683 124.203 154.385 112.948C155.329 106.475 156.764 100.084 158.677 93.8284C158.677 93.8284 160.935 96.319 172.554 94.6733" fill="#616E84"/>
<path d="M162.405 70.4153C162.405 70.4153 155.589 71.5255 154.758 79.8277L156.317 78.2704C156.317 78.2704 160.138 72.4933 162.405 70.4153Z" fill="white"/>
<path d="M164.224 70.3907C162.464 73.7853 157.832 79.3315 159.145 85.3346C160.885 93.3371 157.551 141.288 157.551 141.288C157.551 141.288 153.618 138.798 153.618 136.803C153.618 134.809 155.093 83.0503 155.093 80.599C155.093 78.1476 159.4 73.7951 162.326 70.3956C163.1 70.1178 163.918 69.983 164.741 69.9977C164.741 70.1795 164.741 70.204 164.716 70.3907C164.568 70.4005 164.485 70.3907 164.224 70.3907Z" fill="white"/>
<path d="M133.85 114.323L149.585 105.186L160.885 111.705L145.145 120.842L133.85 114.323Z" fill="#F4F4F4"/>
<path d="M147.554 105.854C146.571 106.08 145.587 106.154 144.761 106.768C144.456 107.04 144.127 107.283 143.778 107.495C143.621 107.579 143.468 107.677 143.286 107.746C143.045 107.83 142.828 107.973 142.657 108.163C142.478 108.418 142.381 108.721 142.376 109.033C142.3 109.407 142.281 109.792 142.322 110.172C142.46 110.737 143.045 110.693 143.355 110.3C143.511 110.103 143.602 109.863 143.616 109.612C143.623 109.374 143.688 109.14 143.803 108.931C143.918 108.722 144.082 108.543 144.279 108.409L148.041 106.075C147.994 105.992 147.921 105.926 147.834 105.886C147.746 105.847 147.649 105.835 147.554 105.854Z" fill="#FFCEA9"/>
<path d="M178.13 85.0153C178.13 85.0153 178.003 99.1191 178.519 103.683C179.035 108.247 185.551 121.619 179.812 139.76C178.966 140.743 178.189 142.733 170.961 143.568C166.648 143.568 165.085 142.909 165.085 142.909C165.085 142.909 166.752 112.486 164.332 85.7718C164.332 78.403 170.676 79.2578 171.851 71.0932C177.452 73.7066 177.457 74.5319 177.457 74.5319L178.13 85.0153Z" fill="white"/>
<path opacity="0.1" d="M175.288 74.3747C172.205 74.7186 171.802 78.6241 171.802 78.6241L171.659 84.6026C171.659 84.6026 171.994 92.2269 172.879 94.5505L159.504 103.732L162.42 107.127C162.42 107.127 176.552 100.608 177.663 99.576C178.775 98.5444 177.663 86.5824 177.835 83.1387C178.578 76.6345 178.391 74.0309 175.288 74.3747Z" fill="black"/>
<path d="M177.501 77.6809C176.98 75.5439 175.303 76.2317 173.862 74.979C170.513 79.7098 172.736 92.5069 173.189 93.8726L160.344 102.052C160.138 102.189 159.695 102.46 159.484 102.592C158.318 103.295 156.076 104.513 154.709 104.67C153.421 104.818 152.742 106.635 151.375 106.788C151.271 106.791 151.17 106.825 151.085 106.886C150.999 106.947 150.934 107.031 150.897 107.129C150.86 107.226 150.852 107.333 150.875 107.434C150.898 107.536 150.951 107.629 151.026 107.701C151.577 108.232 153.047 107.795 154.05 106.621C154.048 106.65 154.048 106.68 154.05 106.709C154.046 106.942 154.125 107.168 154.273 107.348C154.421 107.528 154.628 107.65 154.857 107.692C154.857 107.777 154.881 107.86 154.926 107.932C154.996 108.082 155.104 108.211 155.238 108.308C155.372 108.405 155.528 108.467 155.693 108.487C155.761 108.707 155.904 108.895 156.098 109.02C156.291 109.145 156.522 109.198 156.75 109.17C157.043 109.153 157.318 109.027 157.522 108.816C158.617 108.396 159.585 107.698 160.33 106.793C160.991 106.112 161.687 105.466 162.415 104.857C165.901 103.359 176.355 98.8981 176.822 98.2644C177.501 97.3261 178.244 80.7316 177.501 77.6809Z" fill="#FFCEA9"/>
<path d="M174.772 73.3431C171.689 73.687 171.285 77.5925 171.285 77.5925L171.143 83.5661C171.143 83.5661 171.477 91.1953 172.357 93.5189L158.987 102.7L161.903 106.095C161.903 106.095 176.036 99.576 177.122 98.5444C178.209 97.5128 178.484 86.8821 178.671 83.4433C179.438 76.9489 177.86 72.9993 174.772 73.3431Z" fill="white"/>
<path opacity="0.4" d="M22.305 177.941C28.8174 177.941 34.0968 174.894 34.0968 171.137C34.0968 167.379 28.8174 164.333 22.305 164.333C15.7926 164.333 10.5132 167.379 10.5132 171.137C10.5132 174.894 15.7926 177.941 22.305 177.941Z" fill="#D6D8E5"/>
<path d="M23.9868 176.678C30.4992 176.678 35.7785 173.632 35.7785 169.874C35.7785 166.117 30.4992 163.07 23.9868 163.07C17.4744 163.07 12.195 166.117 12.195 169.874C12.195 173.632 17.4744 176.678 23.9868 176.678Z" fill="#D6D8E5"/>
<path d="M8.20209 146.618L12.3277 170.346H35.749L39.7763 146.79L8.20209 146.618Z" fill="#D6D8E5"/>
<path d="M23.9868 155.436C32.7125 155.436 39.7862 151.356 39.7862 146.324C39.7862 141.291 32.7125 137.211 23.9868 137.211C15.261 137.211 8.18738 141.291 8.18738 146.324C8.18738 151.356 15.261 155.436 23.9868 155.436Z" fill="#E4E6EF"/>
<path d="M23.9868 153.427C20.1168 153.427 16.5075 152.577 13.8226 151.03C11.5213 149.699 10.1985 147.984 10.1985 146.324C10.1985 144.663 11.5213 142.949 13.8226 141.622C16.5026 140.075 20.1168 139.22 23.9868 139.22C27.8567 139.22 31.4709 140.075 34.1558 141.622C36.4571 142.949 37.775 144.663 37.775 146.324C37.775 147.984 36.4571 149.699 34.1558 151.03C31.4709 152.577 27.8616 153.427 23.9868 153.427Z" fill="#28221C"/>
<path d="M30.7874 139.146C30.7874 139.146 30.4776 119.909 23.9867 113.11C16.0649 120.076 17.3188 139.176 17.3188 139.176L24.0851 151.457C24.9702 151.487 30.7874 139.146 30.7874 139.146Z" fill="#99B524"/>
<path d="M24.0851 151.442C24.0851 151.442 20.4807 128.393 7.0859 119.732C7.0859 119.732 4.69607 151.305 24.0851 151.442Z" fill="#A6CE28"/>
<path d="M23.9868 151.442C23.9868 151.442 27.2371 128.845 40.2926 120.69C40.2926 120.69 43.3758 151.305 23.9868 151.442Z" fill="#A6CE28"/>
<path d="M0 226.987V230.475L1.15557 231.158L1.31784 231.242V227.724L0 226.987Z" fill="#C5C8D3"/>
</svg>
